<svg xmlns="http://www.w3.org/2000/svg" version="1.1" xmlns:xlink="http://www.w3.org/1999/xlink" xmlns:svgjs="http://svgjs.dev/svgjs" width="64.036" height="70.04"><svg height="70.04" width="64.036" xmlns="http://www.w3.org/2000/svg"><path d="m402.26758 197.34235v52.02947c.004 1.51984.6708 1.96571 2.00113 2.00113h12.0068v-8.00453h-6.0034v-38.02154h10.00567v10.00567h8.00453v-18.0102zm30.017 8.00453v6.0034c11.95069 2.437 11.55012 9.94347 12.0068 18.0102v4.00227h10.00567c1.62548.50847 3.71314-.29259 4.00226 4.00227v6.0034h-26.01473v8.00453h32.01813c1.48825-.004 1.99739-.73398 2.00114-2.00113v-12.0068c-.94134-4.49591-1.437-9.20788-10.00567-10.00567h-6.0034c-.70262-17.78761-9.12701-20.35227-18.0102-22.01247zm-16.00907 14.00794v4.00226h18.0102v-4.00226zm0 6.0034v4.00226h18.0102v-4.00226zm.0625 6.0034v4.00226h18.0102v-4.00226zm3.93973 8.00453v16.00907h-8.00453l12.0068 12.0068 12.0068-12.0068h-8.00454v-16.00907z" fill="#00bcf2" transform="translate(-402.268 -197.342)"></path></svg><style>@media (prefers-color-scheme: light) { :root { filter: none; } }
@media (prefers-color-scheme: dark) { :root { filter: none; } }
</style></svg>