<?xml version="1.0" encoding="UTF-8"?>
<svg width="32" height="32" viewBox="0 0 50 50" fill="none" xmlns="http://www.w3.org/2000/svg">
  <path d="M0 10C0 4.47715 4.47715 0 10 0H40C45.5228 0 50 4.47715 50 10V40C50 45.5228 45.5228 50 40 50H10C4.47715 50 0 45.5228 0 40V10Z" fill="#0078D4"/>
  <path d="M34 16H16C14.8954 16 14 16.8954 14 18V32C14 33.1046 14.8954 34 16 34H34C35.1046 34 36 33.1046 36 32V18C36 16.8954 35.1046 16 34 16Z" stroke="white" strokeWidth="2"/>
  <path d="M14 20L25 26L36 20" stroke="white" strokeWidth="2"/>
  <rect x="20" y="23" width="10" height="2" fill="white"/>
  <rect x="20" y="27" width="10" height="2" fill="white"/>
</svg>
